<?xml version="1.0" encoding="UTF-8"?>
<svg xmlns="http://www.w3.org/2000/svg" xmlns:xlink="http://www.w3.org/1999/xlink" width="48px" height="48px" viewBox="0 0 48 48" version="1.1">
<defs>
<linearGradient id="linear0" gradientUnits="userSpaceOnUse" x1="0" y1="0" x2="0" y2="200" gradientTransform="matrix(0.0661307,0,0,0.0826634,17.386926,10.281457)">
<stop offset="0" style="stop-color:rgb(9.019608%,91.764706%,85.098039%);stop-opacity:1;"/>
<stop offset="1" style="stop-color:rgb(37.647059%,47.058824%,91.764706%);stop-opacity:1;"/>
</linearGradient>
<linearGradient id="linear1" gradientUnits="userSpaceOnUse" x1="-7.6" y1="-13.61464" x2="-7.6" y2="72.385361" gradientTransform="matrix(0.0720433,0,0,0.0900541,23.165017,16.346673)">
<stop offset="0" style="stop-color:rgb(9.019608%,91.764706%,85.098039%);stop-opacity:1;"/>
<stop offset="1" style="stop-color:rgb(37.647059%,47.058824%,91.764706%);stop-opacity:1;"/>
</linearGradient>
</defs>
<g id="surface1">
<path style=" stroke:none;fill-rule:nonzero;fill:url(#linear0);" d="M 30.613281 26.8125 L 24 26.8125 L 24 26.410156 L 30.289062 26.410156 L 30.289062 10.683594 L 17.710938 10.683594 L 17.710938 18.546875 L 17.386719 18.546875 L 17.386719 10.28125 L 30.613281 10.28125 Z M 30.613281 26.8125 "/>
<path style=" stroke:none;fill-rule:nonzero;fill:rgb(19.215687%,75.294119%,87.450981%);fill-opacity:1;" d="M 10.78125 33.003906 L 11.375 33.003906 C 11.753906 33.003906 12.050781 32.867188 12.050781 32.210938 L 12.050781 31.816406 C 12.050781 31.433594 11.953125 31.265625 11.792969 31.1875 C 11.925781 31.097656 12.011719 30.925781 12.011719 30.578125 L 12.011719 30.328125 C 12.011719 29.667969 11.714844 29.539062 11.335938 29.539062 L 10.78125 29.539062 Z M 11.058594 32.707031 L 11.058594 31.320312 L 11.375 31.320312 C 11.617188 31.320312 11.773438 31.414062 11.773438 31.914062 L 11.773438 32.164062 C 11.773438 32.613281 11.617188 32.707031 11.375 32.707031 Z M 11.058594 31.074219 L 11.058594 29.835938 L 11.335938 29.835938 C 11.578125 29.835938 11.734375 29.929688 11.734375 30.378906 L 11.734375 30.527344 C 11.734375 30.976562 11.578125 31.074219 11.335938 31.074219 Z M 14.675781 29.539062 L 14.042969 29.539062 L 14.042969 29.835938 L 14.222656 29.835938 L 14.222656 32.707031 L 14.042969 32.707031 L 14.042969 33.003906 L 14.675781 33.003906 L 14.675781 32.707031 L 14.5 32.707031 L 14.5 29.835938 L 14.675781 29.835938 Z M 17.761719 29.539062 L 16.453125 29.539062 L 16.453125 29.835938 L 16.96875 29.835938 L 16.96875 33.003906 L 17.246094 33.003906 L 17.246094 29.835938 L 17.761719 29.835938 Z M 21.390625 29.539062 L 20.992188 29.539062 L 20.523438 31.65625 L 20.050781 29.539062 L 19.65625 29.539062 L 19.65625 33.003906 L 19.933594 33.003906 L 19.933594 30.25 L 20.378906 32.261719 L 20.664062 32.261719 L 21.113281 30.25 L 21.113281 33.003906 L 21.390625 33.003906 Z M 23.324219 33.003906 L 23.601562 33.003906 L 23.757812 32.0625 L 24.46875 32.0625 L 24.628906 33.003906 L 24.90625 33.003906 L 24.324219 29.539062 L 23.90625 29.539062 Z M 23.8125 31.765625 L 24.117188 29.949219 L 24.421875 31.765625 Z M 26.839844 33.003906 L 27.117188 33.003906 L 27.117188 31.714844 L 27.394531 31.714844 L 27.886719 33.003906 L 28.183594 33.003906 L 27.679688 31.675781 C 27.914062 31.601562 28.066406 31.398438 28.066406 30.925781 L 28.066406 30.328125 C 28.066406 29.667969 27.769531 29.539062 27.394531 29.539062 L 26.839844 29.539062 Z M 27.117188 31.417969 L 27.117188 29.835938 L 27.394531 29.835938 C 27.636719 29.835938 27.789062 29.929688 27.789062 30.378906 L 27.789062 30.875 C 27.789062 31.324219 27.636719 31.417969 27.394531 31.417969 Z M 30.125 29.539062 L 30.125 33.003906 L 30.402344 33.003906 L 30.402344 31.539062 L 30.484375 31.375 L 31.152344 33.003906 L 31.449219 33.003906 L 30.644531 31.046875 L 31.394531 29.539062 L 31.097656 29.539062 L 30.402344 30.941406 L 30.402344 29.539062 Z M 33.304688 29.539062 L 33.304688 33.003906 L 34.492188 33.003906 L 34.492188 32.707031 L 33.582031 32.707031 L 33.582031 31.417969 L 34.253906 31.417969 L 34.253906 31.121094 L 33.582031 31.121094 L 33.582031 29.835938 L 34.453125 29.835938 L 34.453125 29.539062 Z M 37.496094 29.539062 L 36.1875 29.539062 L 36.1875 29.835938 L 36.703125 29.835938 L 36.703125 33.003906 L 36.980469 33.003906 L 36.980469 29.835938 L 37.496094 29.835938 Z M 37.496094 29.539062 "/>
<path style=" stroke:none;fill-rule:nonzero;fill:url(#linear1);" d="M 23.164062 21.136719 L 23.984375 21.136719 C 24.507812 21.136719 24.917969 20.945312 24.917969 20.042969 L 24.917969 19.496094 C 24.917969 18.96875 24.78125 18.734375 24.5625 18.625 C 24.746094 18.503906 24.863281 18.261719 24.863281 17.785156 L 24.863281 17.441406 C 24.863281 16.523438 24.453125 16.347656 23.929688 16.347656 L 23.164062 16.347656 Z M 23.546875 20.726562 L 23.546875 18.8125 L 23.984375 18.8125 C 24.320312 18.8125 24.535156 18.941406 24.535156 19.632812 L 24.535156 19.972656 C 24.535156 20.597656 24.320312 20.726562 23.984375 20.726562 Z M 23.546875 18.46875 L 23.546875 16.757812 L 23.929688 16.757812 C 24.265625 16.757812 24.480469 16.886719 24.480469 17.511719 L 24.480469 17.714844 C 24.480469 18.339844 24.265625 18.46875 23.929688 18.46875 Z M 23.546875 18.46875 "/>
</g>
</svg>
